<?xml version="1.0" standalone="no"?>
<!DOCTYPE svg PUBLIC "-//W3C//DTD SVG 20010904//EN"
 "http://www.w3.org/TR/2001/REC-SVG-20010904/DTD/svg10.dtd">
<svg version="1.0" xmlns="http://www.w3.org/2000/svg"
 width="1000.000000pt" height="1000.000000pt" viewBox="0 0 1000.000000 1000.000000"
 preserveAspectRatio="xMidYMid meet">

<g transform="translate(0.000000,1000.000000) scale(0.100000,-0.100000)"
fill="#000000" stroke="none">
<path d="M3270 7487 c-13 -7 -62 -55 -108 -107 -259 -294 -427 -662 -478
-1053 -20 -148 -14 -457 10 -585 75 -400 255 -759 513 -1024 58 -61 70 -68
104 -68 46 0 87 32 95 75 6 35 -5 53 -114 177 -595 677 -579 1723 35 2380 75
80 88 108 72 155 -17 53 -77 76 -129 50z"/>
<path d="M6643 7489 c-29 -15 -55 -72 -48 -102 4 -13 37 -57 74 -98 136 -152
231 -293 309 -458 298 -637 191 -1403 -270 -1929 -110 -126 -112 -129 -112
-168 0 -49 39 -84 95 -84 35 0 46 7 90 53 249 257 437 611 508 953 31 153 41
255 41 424 -1 471 -159 903 -462 1265 -41 50 -89 103 -105 118 -33 31 -87 42
-120 26z"/>
<path d="M3534 7073 c-197 -205 -333 -480 -379 -768 -20 -120 -19 -356 1 -476
20 -118 80 -301 134 -410 80 -159 248 -377 308 -400 32 -12 87 5 107 34 30 43
19 81 -43 154 -173 201 -263 379 -313 616 -28 132 -30 351 -5 479 45 235 153
452 310 626 55 61 66 78 66 108 0 50 -45 94 -95 94 -31 0 -44 -8 -91 -57z"/>
<path d="M6309 7101 c-47 -48 -41 -88 26 -161 387 -421 451 -1014 164 -1517
-24 -41 -83 -123 -131 -181 -93 -112 -105 -143 -73 -189 20 -28 75 -46 106
-34 41 15 163 156 241 277 14 23 46 81 71 130 270 539 169 1214 -247 1647 -47
49 -59 57 -91 57 -27 0 -44 -8 -66 -29z"/>
<path d="M4860 6899 c-323 -54 -589 -303 -676 -636 -26 -100 -24 -292 5 -398
31 -115 88 -228 162 -319 109 -134 156 -204 188 -280 36 -88 61 -219 61 -327
l0 -79 399 0 398 0 6 118 c12 232 60 345 239 557 71 84 129 193 164 310 23 77
27 108 27 220 1 141 -13 218 -59 327 -64 154 -204 316 -346 400 -164 97 -379
138 -568 107z m278 -165 c138 -28 288 -117 381 -225 120 -142 181 -354 152
-537 -23 -147 -73 -244 -209 -403 -109 -129 -192 -319 -210 -481 l-7 -63 -239
-3 c-260 -3 -256 -4 -256 54 0 17 -11 75 -24 128 -31 122 -106 267 -187 361
-168 197 -231 361 -215 557 34 410 412 694 814 612z"/>
<path d="M3835 6655 c-97 -101 -174 -247 -211 -402 -21 -88 -21 -266 -1 -359
44 -201 194 -435 290 -451 31 -5 40 -1 67 25 48 49 42 87 -26 170 -59 71 -125
197 -143 273 -52 219 5 441 157 612 34 39 42 55 42 88 0 55 -34 89 -90 89 -35
0 -47 -6 -85 -45z"/>
<path d="M6015 6675 c-18 -17 -25 -35 -25 -64 0 -34 8 -49 51 -98 221 -252
222 -606 4 -877 -64 -79 -71 -117 -31 -163 36 -42 93 -39 142 7 90 87 177 243
215 385 28 106 30 279 5 388 -34 150 -110 295 -208 400 -39 42 -49 47 -87 47
-31 0 -48 -6 -66 -25z"/>
<path d="M4600 4702 c0 -110 74 -206 168 -219 36 -5 41 -9 46 -39 12 -62 41
-74 186 -74 145 0 174 12 186 74 5 30 10 34 45 39 52 7 100 38 135 88 24 35
29 54 32 115 l4 74 -401 0 -401 0 0 -58z"/>
<path d="M4028 4476 c-299 -150 -502 -442 -537 -771 -6 -55 -18 -263 -27 -463
-18 -401 -16 -420 39 -524 38 -75 110 -141 195 -181 l67 -32 1235 0 1235 0 67
32 c134 63 231 194 244 328 3 33 -4 245 -15 470 -23 463 -30 510 -107 674 -80
171 -193 302 -347 405 -75 50 -165 96 -188 96 -5 0 -9 -5 -9 -11 0 -30 -92
-201 -138 -256 -94 -113 -252 -204 -413 -239 l-77 -17 -27 -66 c-15 -36 -33
-73 -42 -83 -13 -14 -9 -60 31 -410 26 -216 49 -409 52 -429 5 -36 4 -37 -131
-154 l-136 -117 -67 59 c-37 32 -97 85 -135 118 l-67 59 5 45 c3 25 26 218 51
429 41 344 45 385 31 400 -8 9 -27 46 -41 82 l-26 65 -90 22 c-257 63 -439
218 -522 446 -11 31 -26 57 -32 57 -6 0 -41 -15 -78 -34z"/>
<path d="M4781 4204 c-21 -17 -31 -35 -31 -53 0 -29 106 -271 124 -283 6 -4
63 -8 126 -8 63 0 120 4 126 8 18 12 124 252 124 280 -1 31 -16 54 -47 70 -14
8 -85 12 -207 12 -184 0 -185 0 -215 -26z"/>
<path d="M4890 3797 c0 -2 -20 -171 -45 -375 -25 -204 -45 -386 -45 -405 0
-30 10 -42 100 -121 l100 -87 100 86 c82 72 100 92 100 115 0 24 -69 630 -85
745 l-6 41 -109 2 c-61 1 -110 1 -110 -1z"/>
</g>
</svg>
