<?xml version="1.0" standalone="no"?>
<!DOCTYPE svg PUBLIC "-//W3C//DTD SVG 20010904//EN"
 "http://www.w3.org/TR/2001/REC-SVG-20010904/DTD/svg10.dtd">
<svg version="1.0" xmlns="http://www.w3.org/2000/svg"
 width="1000.000000pt" height="1000.000000pt" viewBox="0 0 1000.000000 1000.000000"
 preserveAspectRatio="xMidYMid meet">

<g transform="translate(0.000000,1000.000000) scale(0.100000,-0.100000)"
fill="#000000" stroke="none">
<path d="M4618 7431 c-1 -5 -36 -12 -76 -15 -117 -9 -376 -97 -411 -140 -14
-16 -13 -70 5 -253 l6 -62 -47 -28 c-71 -42 -234 -166 -279 -211 -38 -40 -39
-40 -75 -27 -20 7 -71 29 -115 49 -79 36 -131 44 -166 26 -57 -31 -281 -420
-280 -487 1 -32 23 -60 85 -106 34 -25 80 -63 103 -84 l43 -38 -25 -99 c-16
-62 -27 -144 -32 -226 l-7 -127 -66 -30 c-36 -17 -88 -39 -116 -48 -27 -10
-61 -28 -74 -39 -22 -20 -23 -24 -16 -126 8 -125 22 -190 41 -190 8 0 49 10
90 22 l76 23 -6 50 c-3 27 -9 60 -12 72 -4 16 0 23 18 28 59 18 186 87 217
119 34 35 34 35 37 144 4 128 24 261 55 362 18 61 20 78 10 110 -12 40 -81
118 -161 182 l-45 36 26 54 c15 30 48 86 73 125 l46 71 87 -34 c52 -20 114
-37 155 -41 l67 -6 78 75 c90 87 203 172 295 223 105 57 103 53 103 227 l0
150 50 19 c51 20 172 49 204 49 12 0 30 -28 61 -95 23 -53 60 -114 80 -137
l37 -42 155 -7 c170 -8 180 -9 312 -46 86 -23 92 -24 132 -8 44 17 145 114
179 173 11 17 23 32 27 32 5 0 26 -11 48 -25 22 -14 42 -25 46 -25 3 0 40 -21
81 -46 57 -36 72 -51 67 -63 -36 -84 -67 -195 -68 -242 l-1 -56 77 -81 c91
-98 160 -187 222 -293 58 -97 70 -102 244 -98 l126 4 21 -62 20 -63 90 6 c50
3 93 9 97 13 7 6 -24 101 -71 222 -18 48 -28 59 -62 74 -39 18 -45 18 -167 1
-96 -14 -127 -16 -130 -7 -12 35 -149 225 -206 286 -36 39 -66 76 -66 82 0 16
25 81 61 161 16 34 29 79 29 101 0 34 -6 44 -53 84 -110 94 -374 237 -437 237
-44 0 -63 -12 -106 -72 -59 -81 -126 -158 -135 -153 -26 17 -271 55 -349 55
-106 0 -98 -8 -160 150 -46 115 -75 150 -127 150 -17 0 -33 -4 -35 -9z"/>
<path d="M4724 6464 c-173 -29 -324 -108 -452 -235 -267 -266 -328 -659 -157
-999 68 -133 211 -280 328 -336 34 -16 36 -16 71 11 21 16 94 56 163 90 125
62 125 62 89 69 -108 20 -270 114 -333 194 -50 61 -103 166 -119 229 -17 75
-17 202 1 278 48 201 230 376 437 421 74 16 147 17 203 4 22 -5 53 -11 70 -14
97 -18 242 -124 313 -230 70 -104 97 -195 97 -321 0 -118 -25 -203 -87 -302
-37 -59 -148 -173 -169 -173 -5 0 -9 -3 -9 -7 0 -5 46 -6 102 -5 87 3 223 -10
262 -24 22 -8 138 203 150 272 3 14 12 59 22 101 33 148 3 359 -74 513 -78
159 -193 281 -352 373 -46 26 -179 78 -215 83 -11 1 -51 7 -90 13 -89 13 -150
12 -251 -5z"/>
<path d="M6484 5875 c-294 -68 -534 -285 -622 -565 -18 -57 -50 -278 -41 -283
2 -1 45 -22 94 -46 252 -124 472 -345 602 -606 22 -44 46 -97 52 -118 15 -46
36 -52 138 -43 262 22 497 152 639 354 118 168 163 330 150 535 -8 130 -10
143 -35 219 -99 297 -339 501 -661 562 -111 22 -196 19 -316 -9z m246 -308 l0
-54 67 -34 c72 -36 115 -89 127 -156 l6 -33 -63 0 -63 0 -13 36 c-17 47 -62
74 -124 74 -92 0 -154 -58 -144 -133 7 -56 43 -86 192 -162 67 -34 134 -76
156 -99 78 -77 90 -220 27 -309 -24 -33 -114 -87 -145 -87 -21 0 -23 -4 -23
-60 l0 -60 -70 0 -70 0 0 54 0 53 -45 13 c-48 13 -105 62 -131 111 -8 17 -18
53 -21 80 l-6 50 64 -3 64 -3 6 -42 c3 -23 11 -49 19 -58 39 -47 124 -59 188
-26 62 32 77 55 77 122 -1 76 -17 93 -164 169 -143 72 -177 98 -213 155 -38
62 -40 158 -4 220 26 44 80 87 134 106 31 11 32 12 32 70 l0 59 70 0 70 0 0
-53z"/>
<path d="M3330 5049 c-264 -51 -474 -182 -638 -396 -46 -60 -118 -207 -149
-305 -24 -77 -26 -97 -27 -268 -1 -176 0 -190 27 -278 103 -338 346 -577 681
-671 100 -28 122 -31 260 -31 170 0 276 21 410 82 97 43 101 47 82 89 -46 107
-86 324 -86 474 0 107 27 289 58 395 53 178 137 333 263 489 l52 65 -95 92
c-52 50 -114 102 -138 115 -164 90 -256 126 -384 148 -70 13 -252 13 -316 0z
m240 -377 l0 -67 60 -23 c94 -37 170 -135 170 -221 0 -19 -5 -21 -70 -21 -59
0 -72 3 -76 18 -16 52 -40 83 -79 102 -52 25 -117 25 -173 0 -34 -15 -47 -29
-64 -66 -41 -94 1 -149 187 -243 145 -73 210 -121 248 -183 50 -81 50 -221 -1
-296 -35 -52 -71 -80 -141 -108 l-56 -23 -3 -65 -3 -66 -84 0 -85 0 0 65 c0
62 -1 65 -27 71 -108 26 -188 120 -208 242 l-7 42 81 0 81 0 0 -32 c0 -112
137 -174 250 -114 83 44 110 116 75 204 -19 45 -64 77 -229 159 -131 64 -187
111 -216 178 -28 66 -33 109 -20 164 19 80 62 135 132 171 34 16 67 30 75 30
10 0 13 19 13 75 l0 75 85 0 85 0 0 -68z"/>
<path d="M5085 4934 c-11 -3 -56 -14 -100 -25 -197 -46 -369 -144 -533 -304
-120 -116 -176 -191 -241 -321 -91 -181 -125 -329 -126 -534 0 -205 39 -369
129 -547 108 -213 305 -411 510 -511 131 -64 171 -82 188 -82 7 0 32 -7 56
-15 62 -22 148 -30 312 -30 160 0 228 7 310 31 244 72 428 189 596 380 268
303 358 745 232 1144 -26 81 -106 243 -159 322 -23 33 -82 101 -132 152 -156
157 -336 261 -552 318 -66 17 -115 21 -275 24 -107 1 -204 0 -215 -2z m331
-189 c163 -22 280 -65 409 -150 161 -105 294 -259 367 -424 16 -36 33 -75 38
-86 56 -125 69 -409 26 -571 -55 -206 -143 -355 -298 -500 -232 -217 -602
-322 -875 -250 -29 8 -53 13 -53 11 0 -8 -145 47 -204 77 -194 98 -350 255
-450 455 -40 79 -93 245 -95 298 -11 291 7 399 95 580 145 300 436 514 759
560 123 17 155 17 281 0z"/>
<path d="M5170 4427 l0 -82 -50 -18 c-67 -24 -129 -73 -165 -132 -25 -41 -31
-61 -34 -127 -5 -122 9 -160 94 -243 61 -60 92 -80 211 -139 76 -38 154 -80
173 -94 39 -29 61 -76 61 -132 0 -57 -23 -96 -78 -131 -39 -25 -56 -29 -114
-29 -42 0 -80 6 -98 15 -33 17 -65 71 -75 128 l-7 37 -94 0 c-52 0 -94 -2 -94
-4 0 -35 34 -166 50 -191 34 -55 108 -113 166 -132 l54 -17 0 -73 0 -73 110 0
110 0 0 78 0 78 56 19 c66 22 145 89 176 149 17 32 22 62 25 142 2 93 1 105
-25 154 -41 80 -114 139 -264 216 -139 70 -202 111 -225 144 -59 84 -15 184
94 216 48 14 58 14 106 0 63 -18 106 -59 114 -110 l6 -37 96 3 96 3 -3 34 c-5
46 -42 128 -77 169 -33 39 -120 92 -152 92 -22 0 -23 4 -23 85 l0 85 -110 0
-110 0 0 -83z"/>
</g>
</svg>
