<?xml version="1.0" standalone="no"?>
<!DOCTYPE svg PUBLIC "-//W3C//DTD SVG 20010904//EN"
 "http://www.w3.org/TR/2001/REC-SVG-20010904/DTD/svg10.dtd">
<svg version="1.0" xmlns="http://www.w3.org/2000/svg"
 width="1000.000000pt" height="1000.000000pt" viewBox="0 0 1000.000000 1000.000000"
 preserveAspectRatio="xMidYMid meet">

<g transform="translate(0.000000,1000.000000) scale(0.100000,-0.100000)"
fill="#000000" stroke="none">
<path d="M4835 7500 c-43 -5 -84 -11 -90 -14 -8 -3 -5 -59 11 -192 13 -104 23
-194 24 -201 0 -10 -295 -133 -319 -133 -6 0 -191 250 -232 313 -9 14 -66 -23
-169 -108 -80 -67 -154 -145 -228 -242 l-33 -42 137 -108 c76 -59 148 -117
160 -128 l22 -20 -70 -157 c-63 -141 -72 -157 -92 -153 -89 19 -357 57 -369
52 -17 -6 -36 -127 -40 -242 l-2 -70 385 0 385 0 6 65 c21 232 162 436 374
540 109 54 181 71 300 71 205 0 389 -85 522 -243 87 -102 152 -261 153 -370 0
-73 -30 -68 391 -68 320 0 380 2 385 14 7 18 -15 239 -24 247 -4 3 -72 -2
-152 -12 -80 -10 -168 -21 -196 -24 l-52 -6 -61 156 c-33 86 -61 160 -61 164
0 5 247 189 314 233 14 10 -66 125 -154 220 -76 82 -228 210 -241 203 -4 -3
-62 -74 -128 -159 l-121 -154 -157 69 c-86 38 -158 71 -159 72 -1 1 13 91 30
199 29 175 30 198 17 202 -93 27 -336 40 -466 26z"/>
<path d="M3555 5859 c4 -5 283 -336 621 -735 l614 -726 0 -239 0 -239 205 0
205 0 0 238 0 239 620 732 c341 403 620 734 620 737 0 2 -651 4 -1446 4 -1012
0 -1443 -3 -1439 -11z m1605 -439 l0 -220 173 0 172 0 -255 -255 -255 -255
-255 255 -255 255 173 0 172 0 0 220 0 220 165 0 165 0 0 -220z"/>
<path d="M4915 3733 c-234 -31 -441 -213 -511 -448 -12 -41 -18 -93 -17 -165
0 -90 4 -117 30 -190 70 -202 227 -348 429 -400 149 -38 296 -21 433 50 200
104 318 289 329 515 5 118 -10 191 -63 304 -50 104 -170 224 -277 275 -110 53
-238 74 -353 59z m125 -272 c0 -36 3 -40 30 -45 17 -3 44 -9 61 -12 38 -7 43
-21 29 -74 -9 -33 -15 -40 -28 -35 -37 14 -114 24 -142 19 -37 -8 -53 -26 -48
-56 2 -18 25 -34 108 -75 117 -59 141 -84 148 -152 8 -82 -40 -152 -123 -178
-27 -9 -30 -14 -33 -56 l-3 -47 -45 0 -44 0 0 44 0 43 -48 6 c-61 7 -102 26
-102 46 0 9 5 33 11 53 l10 38 36 -15 c60 -25 135 -30 172 -11 27 15 32 22 29
49 -3 34 -3 34 -152 104 -79 37 -101 68 -101 141 0 72 27 113 95 144 46 21 50
25 50 59 0 45 4 49 52 49 38 0 38 0 38 -39z"/>
</g>
</svg>
